<svg width="201" height="40" viewBox="0 0 201 40" fill="none" xmlns="http://www.w3.org/2000/svg">
<path d="M30.1224 17.2104C28.9867 18.3456 28.4191 19.9246 28.5741 21.5178L28.5474 21.4913C28.7067 23.3661 28.026 25.2154 26.6868 26.5458C25.3476 27.8762 23.4862 28.5525 21.599 28.3942L21.6257 28.4207C19.3407 28.2094 17.1678 29.4442 16.1926 31.5079C15.2175 33.5717 15.6496 36.0213 17.273 37.6326C18.8965 39.2439 21.3626 39.671 23.439 38.7004C25.5155 37.7298 26.7564 35.5699 26.5417 33.3001L26.5698 33.3266C26.4105 31.4518 27.0912 29.6025 28.4304 28.2721C29.7696 26.9417 31.631 26.2654 33.5182 26.4236L33.4901 26.3972C36.0013 26.6215 38.338 25.1004 39.1334 22.7234C39.9288 20.3464 38.9739 17.7382 36.8273 16.4242C34.6807 15.1102 31.9063 15.4358 30.1269 17.2104H30.1224Z" fill="#5454D4"/>
<path d="M19.2025 24.953L19.1744 24.9265C20.779 25.0872 22.3715 24.5234 23.5124 23.3909C24.6532 22.2584 25.2219 20.6767 25.0614 19.0824L25.0895 19.1089C24.9302 17.2341 25.611 15.3848 26.9501 14.0544C28.2893 12.724 30.1508 12.0477 32.0379 12.206L32.0098 12.1795C34.2949 12.3927 36.4692 11.1593 37.4458 9.09582C38.4224 7.03236 37.9916 4.58207 36.3687 2.96974C34.7457 1.35741 32.2793 0.92938 30.2022 1.8996C28.1252 2.86982 26.8837 5.02989 27.0983 7.30007L27.0716 7.27213C27.2315 9.14709 26.5509 10.9967 25.2116 12.3272C23.8723 13.6578 22.0105 14.3339 20.1232 14.1751L20.1499 14.203C18.5452 14.0424 16.9527 14.6061 15.8118 15.7387C14.671 16.8712 14.1023 18.4528 14.2628 20.0471L14.2362 20.0207C14.395 21.8954 13.7141 23.7443 12.375 25.0746C11.0359 26.4049 9.17482 27.0813 7.28778 26.9236L7.31442 26.9501C5.02929 26.7369 2.855 27.9703 1.87839 30.0337C0.90178 32.0972 1.33263 34.5475 2.95557 36.1598C4.57852 37.7721 7.04495 38.2002 9.122 37.23C11.199 36.2597 12.4406 34.0997 12.226 31.8295L12.2541 31.856C12.0948 29.9811 12.7755 28.1319 14.1147 26.8014C15.4539 25.471 17.3153 24.7948 19.2025 24.953Z" fill="#FF7143"/>
<path d="M9.28171 22.0016C10.4177 20.8665 10.9848 19.2873 10.8286 17.6942L10.8567 17.7207C10.6973 15.8453 11.3784 13.9955 12.7183 12.665C14.0581 11.3344 15.9204 10.6586 17.8081 10.8178L17.78 10.7913C20.0643 11.0039 22.2375 9.7706 23.2135 7.7078C24.1896 5.64499 23.7587 3.19566 22.1364 1.58393C20.514 -0.0277992 18.0486 -0.455804 15.9722 0.513824C13.8958 1.48345 12.6544 3.64248 12.8684 5.91187L12.8418 5.8854C13.0011 7.76024 12.3203 9.60949 10.9812 10.9399C9.64198 12.2703 7.78054 12.9466 5.89336 12.7883L5.92001 12.8148C3.40888 12.5911 1.07266 14.1127 0.277732 16.4896C-0.517197 18.8666 0.437973 21.4746 2.58459 22.7882C4.73121 24.1019 7.50542 23.7762 9.28467 22.0016H9.28171Z" fill="#5454D4"/>
<path d="M55.1361 7.33398H59.5325V28.5884H55.1361V7.33398Z" fill="#19191B"/>
<path fill-rule="evenodd" clip-rule="evenodd" d="M66.7954 14.1596C63.8941 15.3636 62.0098 18.1867 62.0223 21.3104C62.0071 23.3586 62.8215 25.3269 64.2823 26.7724C65.7432 28.2178 67.7277 29.019 69.7893 28.9957C72.9336 28.9957 75.7677 27.1123 76.968 24.2252C78.1683 21.3381 77.4981 18.0168 75.2703 15.8124C73.0425 13.6081 69.6967 12.9555 66.7954 14.1596ZM69.7269 18.0536C71.5768 18.0196 73.1087 19.4729 73.1599 21.3103C73.2098 22.2212 72.874 23.1114 72.2338 23.7653C71.5936 24.4192 70.7072 24.7773 69.7893 24.753C67.9391 24.7531 66.4343 23.2721 66.4172 21.434C66.4001 19.596 67.877 18.0875 69.7269 18.0536Z" fill="#19191B"/>
<path fill-rule="evenodd" clip-rule="evenodd" d="M95.0783 27.8545V14.031L90.7988 14.0281V15.5133C89.7549 14.2443 88.1672 13.5421 86.5194 13.6207C82.4997 13.7466 79.3069 17.0203 79.3069 21.0156C79.3069 25.0109 82.4997 28.2845 86.5194 28.4104C88.1672 28.489 89.7549 27.7868 90.7988 26.5178V27.8486C90.8724 28.7267 90.5403 29.5905 89.8963 30.1963C89.2522 30.8021 88.366 31.0843 87.4875 30.9633C86.0978 31.1043 84.7661 30.3733 84.1465 29.1295L80.3955 31.2839C81.863 33.6593 84.5432 35.0214 87.3409 34.8133C91.2385 34.8133 95.0783 32.7457 95.0783 27.8545ZM88.7112 17.6533C90.0338 18.2458 90.8608 19.5777 90.8003 21.0177C90.8277 21.9476 90.458 22.8456 89.7826 23.4899C89.1073 24.1342 88.1892 24.4649 87.2551 24.4001C85.8043 24.4018 84.4982 23.527 83.9557 22.1903C83.4133 20.8535 83.7436 19.3234 84.79 18.325C85.8364 17.3267 87.3887 17.0608 88.7112 17.6533Z" fill="#19191B"/>
<path fill-rule="evenodd" clip-rule="evenodd" d="M102.341 14.1596C99.4399 15.3636 97.5555 18.1867 97.5681 21.3104C97.5529 23.3586 98.3673 25.3269 99.8281 26.7724C101.289 28.2178 103.273 29.019 105.335 28.9957C108.479 28.9957 111.313 27.1123 112.514 24.2252C113.714 21.3381 113.044 18.0168 110.816 15.8124C108.588 13.6081 105.243 12.9555 102.341 14.1596ZM105.273 18.0536C107.123 18.0196 108.654 19.4729 108.706 21.3103C108.756 22.2212 108.42 23.1114 107.78 23.7653C107.139 24.4192 106.253 24.7773 105.335 24.753C103.485 24.7531 101.98 23.2721 101.963 21.434C101.946 19.596 103.423 18.0875 105.273 18.0536Z" fill="#19191B"/>
<path fill-rule="evenodd" clip-rule="evenodd" d="M116.781 7.70847C115.795 8.11409 115.152 9.06965 115.152 10.1296C115.167 11.5709 116.339 12.7358 117.79 12.7502C118.857 12.7502 119.819 12.1117 120.227 11.1324C120.635 10.1532 120.41 9.02602 119.655 8.27654C118.901 7.52706 117.766 7.30285 116.781 7.70847ZM119.994 14.031H115.596L115.59 28.5898H119.994V14.031Z" fill="#19191B"/>
<path fill-rule="evenodd" clip-rule="evenodd" d="M137.084 26.6C138.398 25.1575 139.08 23.2537 138.977 21.3104C139.081 19.3667 138.399 17.4623 137.085 16.0193C135.77 14.5764 133.93 13.7141 131.973 13.6236C130.323 13.5342 128.72 14.1859 127.607 15.3986V14.031H123.211V34.4118H127.607V27.2192C128.72 28.4328 130.323 29.0851 131.973 28.9957C133.929 28.9048 135.769 28.0426 137.084 26.6ZM131.036 17.9329C132.951 17.901 134.533 19.4087 134.581 21.3103C134.647 22.2554 134.304 23.1836 133.639 23.8619C132.973 24.5401 132.047 24.9039 131.095 24.8618C129.18 24.862 127.623 23.3285 127.607 21.4263C127.591 19.5241 129.122 17.9647 131.036 17.9329Z" fill="#19191B"/>
<path d="M152.544 24.2207C152.544 27.5693 149.614 28.9957 146.45 28.9957C143.833 29.2312 141.337 27.8585 140.148 25.531L143.957 23.3766C144.274 24.4602 145.311 25.176 146.444 25.0943C147.498 25.0943 148.026 24.7737 148.026 24.1928C148.026 22.5899 140.816 23.4354 140.816 18.3987C140.816 15.2237 143.513 13.6237 146.561 13.6237C148.894 13.5503 151.083 14.7436 152.275 16.7384L148.524 18.7472C148.187 17.9676 147.414 17.4633 146.561 17.4663C145.798 17.4663 145.329 17.7604 145.329 18.281C145.335 19.9413 152.544 18.834 152.544 24.2207Z" fill="#19191B"/>
<path d="M168.603 14.031V28.5898H164.207V27.2207C163.178 28.4462 161.62 29.1069 160.018 28.9972C157.057 28.9972 154.541 26.9016 154.541 22.9678V14.031H158.937V22.3281C158.863 23.0299 159.103 23.7287 159.594 24.2386C160.085 24.7485 160.777 25.0179 161.486 24.9751C163.098 24.9751 164.211 24.0442 164.211 21.9766V14.0354L168.603 14.031Z" fill="#19191B"/>
<path d="M193.812 19.6501V28.5883H189.416V20.0281C189.416 18.5722 188.713 17.6413 187.307 17.6413C185.841 17.6413 185.02 18.6604 185.02 20.3781V28.5883H180.625V20.0281C180.625 18.5722 179.922 17.6413 178.514 17.6413C177.048 17.6413 176.228 18.6604 176.228 20.3781V28.5883H171.832V14.0295H176.228V15.3678C177.154 14.1614 178.633 13.5041 180.155 13.6222C181.686 13.5478 183.143 14.277 183.994 15.5428C184.984 14.2195 186.589 13.4942 188.244 13.6222C191.608 13.6236 193.812 16.0104 193.812 19.6501Z" fill="#19191B"/>
<path d="M197.531 13.9413C199.333 13.9413 200.793 12.4902 200.793 10.7002C200.793 8.91011 199.333 7.45898 197.531 7.45898C195.729 7.45898 194.268 8.91011 194.268 10.7002C194.268 12.4902 195.729 13.9413 197.531 13.9413Z" fill="#19191B"/>
</svg>
